<svg xmlns="http://www.w3.org/2000/svg" xmlns:xlink="http://www.w3.org/1999/xlink" viewBox="0 0 1615.26 1475.34"><defs><style>.cls-1{isolation:isolate;}.cls-2{fill:url(#Новый_образец_градиента_2);}.cls-3{fill:url(#Новый_образец_градиента_2-2);}.cls-4{fill:url(#Новый_образец_градиента_2-3);}.cls-5{fill:#2ba14c;}.cls-6{fill:#352e73;}.cls-7{fill:#7271b3;}.cls-8{fill:#fc008b;}.cls-14,.cls-9{fill:#ff7a03;}.cls-10{fill:#fcc13f;}.cls-11{fill:#8cd334;}.cls-12{fill:#fee2bf;}.cls-13{fill:#fae0b2;}.cls-14{opacity:0.68;}.cls-15{fill:#f3ffff;}.cls-16{fill:#d6007e;}.cls-17{fill:#ffa42f;}.cls-18{fill:#7f1ca0;}.cls-19{fill:#adeff7;}.cls-20{fill:#2d2861;}.cls-21{fill:#f7a491;}.cls-22,.cls-25{fill:#f47458;}.cls-22{opacity:0.5;mix-blend-mode:multiply;}.cls-23{fill:#f48c7f;}.cls-24{fill:#f79c8d;}</style><linearGradient id="Новый_образец_градиента_2" x1="693.95" y1="263.03" x2="688.45" y2="870.21" gradientUnits="userSpaceOnUse"><stop offset="0" stop-color="#8bf9fd"/><stop offset="0.99" stop-color="#fafee5"/></linearGradient><linearGradient id="Новый_образец_градиента_2-2" x1="492.98" y1="261.21" x2="487.48" y2="868.39" xlink:href="#Новый_образец_градиента_2"/><linearGradient id="Новый_образец_градиента_2-3" x1="1153.7" y1="267.19" x2="1148.2" y2="874.38" xlink:href="#Новый_образец_градиента_2"/></defs><title>cus-vector</title><g class="cls-1"><g id="Layer_1" data-name="Layer 1"><path class="cls-2" d="M932.91,915.1H444.44a69.93,69.93,0,0,1-69.93-69.93h0a69.93,69.93,0,0,1,69.93-69.94H932.91a69.93,69.93,0,0,1,69.93,69.94h0A69.93,69.93,0,0,1,932.91,915.1Z" transform="translate(-22.96 -21.12)"/><path class="cls-3" d="M811.38,458.43h0c39.32,0,71.2-32.9,71.2-73.48h0c0-40.58-31.88-73.48-71.2-73.48H311.53c-35.33,0-64,29.56-64,66h0c0,43.69-34.32,79.11-76.66,79.11H158c-43.4,0-78.59,36.31-78.59,81.1h0c0,44.79,35.19,81.1,78.59,81.1h0c42.34,0,76.66,35.42,76.66,79.12V713c0,36.46,28.64,66,64,66H821.48c43.41,0,78.59-36.31,78.59-81.1v-.08c0-44.75-35.15-81-78.51-81h0C779.18,616.82,774.62,458.43,811.38,458.43Z" transform="translate(-22.96 -21.12)"/><path class="cls-4" d="M903.59,625.93V615c0-39.55-28.75-71.61-64.22-71.61h0c-37.94,0-68.7-34.3-68.7-76.61h0c0-42.31,30.76-76.6,68.7-76.6h482.28c34.08,0,61.72,30.81,61.72,68.82h0c0,45.55,33.11,82.48,74,82.48h12.42c41.88,0,75.83,37.86,75.83,84.55h0c0,46.7-33.95,84.55-75.83,84.55h0c-40.85,0-74,36.93-74,82.48v15.73c0,38-27.64,68.82-61.72,68.82H829.63c-41.88,0-75.83-37.85-75.83-84.55V793c0-46.65,33.92-84.47,75.75-84.47h0C870.44,708.49,903.59,671.53,903.59,625.93Z" transform="translate(-22.96 -21.12)"/><path class="cls-5" d="M186.87,428.89c-13.47-14.19-36-13.76-36.14-13.81a41.82,41.82,0,0,0-25.2,8.21,31.44,31.44,0,0,0-5.81,5.59l5.14,3.43c.67-2.05,5-7.07,10.35-9.81a34.25,34.25,0,0,1,16-3.91c10.42-.17,23.5,4,31.15,12A16.35,16.35,0,0,0,186.87,428.89Z" transform="translate(-22.96 -21.12)"/><path class="cls-6" d="M55.83,597.1c26.54,11.82,57.89-.67,70-27.89a54.06,54.06,0,0,0-7.92-57.09c15.9-41.67,15.5-79.47-1.92-87.22-8.13-3.62-16.68.23-22.46,3.68C82.88,435,74.71,444.13,67.63,453.41a291.89,291.89,0,0,0-23.56,36.35c-6.68,12.11-13.24,24.6-17.51,37.78-3.41,10.51-4.79,21.83-2.4,33.46a46.81,46.81,0,0,0,16,26.53A66.2,66.2,0,0,0,55.83,597.1Z" transform="translate(-22.96 -21.12)"/><path class="cls-7" d="M117.31,451.41S98.21,510,98.21,516.47s16.2,12,12.27,35.35-18.38,32.11-33.4,28.45-19.76-23.55-8-24.78,23.17,2,26.63-11.06-5.65-28.12-5.65-28.12Z" transform="translate(-22.96 -21.12)"/><path class="cls-5" d="M118,456l-.77-4.82a1.27,1.27,0,0,0-1.58-.91l-4.4,1.4a1.24,1.24,0,0,1-1.6-1l.14-4.27a1.25,1.25,0,0,0-1.71-1l-6.52,3-.26.13-1.63-8a1.29,1.29,0,0,0-1.61-.86l-5.75,2a1.26,1.26,0,0,1-1.61-.94l-.67-6.6a1.2,1.2,0,0,0-.92-1l-3.82-1c-.74-.19-1.15-.94-.79-1.44,11.45-16,30.34-12.32,31.55-12.07l.12,0A35.77,35.77,0,0,1,123,421.5c18.54,10.05,12.66,31.62,9.76,39.45-.32.85-1.83.59-2.08-.35l-.3-1.11a1.23,1.23,0,0,0-1.9-.61h0a1.24,1.24,0,0,1-1.87-.51l-1-2.59a1.3,1.3,0,0,0-1.6-.68l-4.28,1.76A1.28,1.28,0,0,1,118,456Z" transform="translate(-22.96 -21.12)"/><path class="cls-8" d="M364.6,367,247.72,270.8A75.68,75.68,0,0,0,364.6,367Z" transform="translate(-22.96 -21.12)"/><path class="cls-9" d="M307.88,377.88l-8-48.36-29.78,36.19A58.4,58.4,0,0,0,307.88,377.88Z" transform="translate(-22.96 -21.12)"/><path class="cls-9" d="M308.47,330.23,316.22,377a59,59,0,0,0,30.54-15.29Z" transform="translate(-22.96 -21.12)"/><path class="cls-9" d="M294.29,323.13c-17,.27-31.82.7-46.78,2a58.26,58.26,0,0,0,16.37,34.92Z" transform="translate(-22.96 -21.12)"/><path class="cls-9" d="M247.22,316.8c13.75-1.23,27.37-1.69,42.55-2L256.3,287.3A59.17,59.17,0,0,0,247.22,316.8Z" transform="translate(-22.96 -21.12)"/><path class="cls-10" d="M319,351.12a3.51,3.51,0,0,0,2-4.52c-.59-2-4.39-6.65-6-6s-.72,5.88-.13,7.86A3.51,3.51,0,0,0,319,351.12Z" transform="translate(-22.96 -21.12)"/><path class="cls-10" d="M336.48,362.94a3.53,3.53,0,0,0-.15-4.95c-1.4-1.52-6.85-4.07-8.07-2.77s1.91,5.6,3.31,7.13A3.52,3.52,0,0,0,336.48,362.94Z" transform="translate(-22.96 -21.12)"/><path class="cls-10" d="M294.66,376.37a3.5,3.5,0,0,0,3.34-3.64c.07-2.07-2.06-7.7-3.84-7.63s-2.54,5.36-2.61,7.42A3.52,3.52,0,0,0,294.66,376.37Z" transform="translate(-22.96 -21.12)"/><path class="cls-10" d="M286.87,360.86a3.52,3.52,0,0,0,4.91-.61c1.39-1.54,3.41-7.21,2-8.3s-5.4,2.43-6.79,4A3.51,3.51,0,0,0,286.87,360.86Z" transform="translate(-22.96 -21.12)"/><path class="cls-10" d="M264.82,347.91a3.53,3.53,0,0,0,4.91-.62c1.39-1.54,3.41-7.21,2-8.3s-5.4,2.44-6.79,4A3.52,3.52,0,0,0,264.82,347.91Z" transform="translate(-22.96 -21.12)"/><path class="cls-10" d="M274.11,333.66a3.52,3.52,0,0,0,4.39,2.28c2-.47,6.9-4,6.36-5.68s-5.82-1.08-7.84-.6A3.52,3.52,0,0,0,274.11,333.66Z" transform="translate(-22.96 -21.12)"/><path class="cls-10" d="M254.5,309.54a3.52,3.52,0,0,0,3.19,3.78c2,.33,7.9-1.05,8.05-2.83s-5-3.21-7-3.54A3.52,3.52,0,0,0,254.5,309.54Z" transform="translate(-22.96 -21.12)"/><path class="cls-10" d="M266.39,304.83a3.52,3.52,0,0,0,1.1,4.82c1.67,1.23,7.51,2.68,8.46,1.17s-3-5.13-4.63-6.36A3.51,3.51,0,0,0,266.39,304.83Z" transform="translate(-22.96 -21.12)"/><path class="cls-5" d="M397.07,748.25c8.07,2.58,11.74,12.3,8.2,21.72s-12.95,15-21,12.38-11.73-12.31-8.19-21.73S389,745.67,397.07,748.25Z" transform="translate(-22.96 -21.12)"/><path class="cls-11" d="M395.26,749.83a4.06,4.06,0,1,1-4.61,3.84A4.25,4.25,0,0,1,395.26,749.83Z" transform="translate(-22.96 -21.12)"/><path class="cls-5" d="M380.84,226.18l.8-.42a5.29,5.29,0,0,1,5.44.21s0,0,.05,0a5.26,5.26,0,0,0,4.76.67l.84-.26a5.54,5.54,0,0,0,3.35-3.45s0,0,0-.09a5.17,5.17,0,0,1,4.18-3.47l.89-.15a5.11,5.11,0,0,1,5,2v0a5.51,5.51,0,0,0,4.27,2.27h.88a5.32,5.32,0,0,0,4.32-2.07c0-.05,0-.05.06-.07a5.18,5.18,0,0,1,5.11-1.89l.89.18a5.21,5.21,0,0,1,4,3.66l0,.07a5.37,5.37,0,0,0,3.2,3.58l.81.31a5.44,5.44,0,0,0,4.79-.5l.07,0a5.24,5.24,0,0,1,5.44,0l.74.44a5.13,5.13,0,0,1,2.56,4.81s0,0,0,.09a5.25,5.25,0,0,0,1.79,4.42l.69.61a5.35,5.35,0,0,0,4.65,1.14c.05,0,.05,0,.09,0a5.2,5.2,0,0,1,5.11,1.87l.55.68a5.19,5.19,0,0,1,.74,5.4l0,.06a5.38,5.38,0,0,0,.14,4.79l.46.78a5.28,5.28,0,0,0,4,2.7l.06,0a5.15,5.15,0,0,1,4.18,3.52l.3.82a5.33,5.33,0,0,1-1.15,5.33l-.07,0a5.4,5.4,0,0,0-1.46,4.58l.13.86a5.4,5.4,0,0,0,2.82,3.92h.06a5.21,5.21,0,0,1,2.73,4.71l0,.9a5.13,5.13,0,0,1-2.89,4.59l-.07,0a5.49,5.49,0,0,0-2.95,3.79l-.18.89a5.28,5.28,0,0,0,1.34,4.61l0,0a5.18,5.18,0,0,1,1,5.38l-.31.81a5.2,5.2,0,0,1-4.33,3.36l0,0a5.2,5.2,0,0,0-4.07,2.54l-.48.76a5.35,5.35,0,0,0-.34,4.77l0,.07a5.25,5.25,0,0,1-.94,5.37l-.57.67a5.24,5.24,0,0,1-5.24,1.67l-.05,0a5.41,5.41,0,0,0-4.7,1l-.68.54a5.39,5.39,0,0,0-2,4.39l0,.07a5.29,5.29,0,0,1-2.72,4.74l-.8.42a5.43,5.43,0,0,1-2.8.66l-4.68-8.82-43.6-81.8-7-13.23A4.18,4.18,0,0,1,380.84,226.18Z" transform="translate(-22.96 -21.12)"/><path class="cls-11" d="M387.13,239.94c20.89-11.1,47.06-2.74,58.45,18.7s3.68,47.66-17.14,58.8Z" transform="translate(-22.96 -21.12)"/><path class="cls-12" d="M436.62,300.82a4.32,4.32,0,0,1-6.3,5.92c-1.63-1.74-5.71-9.57-4-11.2S435,299.08,436.62,300.82Z" transform="translate(-22.96 -21.12)"/><path class="cls-12" d="M439.71,280.7a4.31,4.31,0,1,1,.69,8.6c-2.37.2-11-1.51-11.23-3.89S437.33,280.89,439.71,280.7Z" transform="translate(-22.96 -21.12)"/><path class="cls-12" d="M432.54,260.83a4.32,4.32,0,1,1,5.67,6.51c-1.79,1.57-9.77,5.35-11.34,3.55S430.74,262.4,432.54,260.83Z" transform="translate(-22.96 -21.12)"/><path class="cls-12" d="M415.4,249.11a4.32,4.32,0,0,1,7.83,3.65c-1,2.16-6.77,8.85-8.93,7.85S414.39,251.27,415.4,249.11Z" transform="translate(-22.96 -21.12)"/><path class="cls-12" d="M396.26,246.61a4.32,4.32,0,0,1,8.61-.74c.2,2.38-1.46,11.05-3.83,11.25S396.47,249,396.26,246.61Z" transform="translate(-22.96 -21.12)"/><path class="cls-8" d="M1414.89,275.74a62.2,62.2,0,0,0-88.65,1.49,63.9,63.9,0,0,0,1.48,89.64,62.2,62.2,0,0,0,88.64-1.49A63.89,63.89,0,0,0,1414.89,275.74Zm-60.32,63.06a24.53,24.53,0,0,1-.57-34.42,23.89,23.89,0,0,1,34-.57,24.53,24.53,0,0,1,.57,34.42A23.89,23.89,0,0,1,1354.57,338.8Z" transform="translate(-22.96 -21.12)"/><path class="cls-13" d="M1365.62,282.62h0a3.24,3.24,0,0,1-.08-4.54l4.42-4.61a3.15,3.15,0,0,1,4.49-.08h0a3.24,3.24,0,0,1,.07,4.54l-4.41,4.61A3.15,3.15,0,0,1,1365.62,282.62Z" transform="translate(-22.96 -21.12)"/><path class="cls-13" d="M1406.6,346h0a3.14,3.14,0,0,1-4.43-.7l-3.74-5.19a3.23,3.23,0,0,1,.7-4.48h0a3.14,3.14,0,0,1,4.43.7l3.74,5.19A3.23,3.23,0,0,1,1406.6,346Z" transform="translate(-22.96 -21.12)"/><path class="cls-13" d="M1349.12,291.63l-.11.56a2.9,2.9,0,0,1-3.4,2.3l-4.48-.9a2.91,2.91,0,0,1-2.27-3.43l.11-.56a2.88,2.88,0,0,1,3.39-2.3l4.48.89A2.93,2.93,0,0,1,1349.12,291.63Z" transform="translate(-22.96 -21.12)"/><path class="cls-13" d="M1382.33,362.57l-.11.57a2.89,2.89,0,0,1-3.39,2.3l-4.48-.9a2.92,2.92,0,0,1-2.28-3.43l.11-.57a2.9,2.9,0,0,1,3.4-2.3l4.48.9A2.92,2.92,0,0,1,1382.33,362.57Z" transform="translate(-22.96 -21.12)"/><path class="cls-13" d="M1397.34,292.45l-.44.36a2.86,2.86,0,0,1-4.06-.46l-2.85-3.61a3,3,0,0,1,.46-4.11l.44-.36a2.89,2.89,0,0,1,4.07.47l2.84,3.61A2.93,2.93,0,0,1,1397.34,292.45Z" transform="translate(-22.96 -21.12)"/><path class="cls-13" d="M1360.65,364.35h0a3.14,3.14,0,0,1-4.46-.51l-2.49-3.16a3.24,3.24,0,0,1,.5-4.51h0a3.16,3.16,0,0,1,4.47.51l2.49,3.16A3.24,3.24,0,0,1,1360.65,364.35Z" transform="translate(-22.96 -21.12)"/><path class="cls-13" d="M1416.87,314l0,.57a2.91,2.91,0,0,1-2.72,3.09l-4.56.26a2.9,2.9,0,0,1-3-2.75l0-.57a2.92,2.92,0,0,1,2.72-3.09l4.56-.26A2.9,2.9,0,0,1,1416.87,314Z" transform="translate(-22.96 -21.12)"/><path class="cls-13" d="M1339.57,342l0,.58a2.9,2.9,0,0,1-2.72,3.08l-4.55.27a2.9,2.9,0,0,1-3-2.75l0-.58a2.91,2.91,0,0,1,2.72-3.08l4.56-.27A2.9,2.9,0,0,1,1339.57,342Z" transform="translate(-22.96 -21.12)"/><path class="cls-13" d="M1335,319.43h0a3.15,3.15,0,0,1-4.41-.85l-3.58-5.3a3.23,3.23,0,0,1,.84-4.46h0a3.15,3.15,0,0,1,4.41.84l3.57,5.31A3.24,3.24,0,0,1,1335,319.43Z" transform="translate(-22.96 -21.12)"/><polygon class="cls-10" points="1395.53 528.41 1277.53 610.96 1274.59 603.23 1243.55 522.02 1325.47 464.71 1395.53 528.41"/><polygon class="cls-14" points="1325.47 577.43 1290.22 602.09 1255.68 513.54 1269.6 503.8 1325.47 577.43"/><polygon class="cls-14" points="1371.08 545.51 1344.16 564.34 1287.58 491.22 1301.72 481.33 1371.08 545.51"/><path class="cls-15" d="M1312.05,503.53s-15.92,8.76-26.91,13.38-29.35,14-28.79,24.23,10.64,18.16,15.54,15.68,7.41-6.13,9.44-11.35.76-8.48.11-11.67c0,0-.42-3.36,4.41.85s9.29,26.69,16.09,34.73,16.09-.13,12.2-7.51c-3-5.77-27.22-24.34-25.9-30.24s6.37-7.62,9.9-3.92,6,17.54,11.12,22.33c5.4,5,11.75-2.53,8-8.21s-18.08-14.54-16.26-17.71,10.73,1.67,20.35.86,11.86-14.22,11.51-20.14,5.13-18.75,17.09-11.48,21.93,38.46,28.33,44.89,20.09-.07,14.78-11c-4.49-9.29-27.45-25.83-36.5-34.28-1.77-1.66-3.32-4.1-2.62-6.41,1.13-3.7-.33-7.62-4.25-10.62-7.12-5.44-19.21-3-26.53,6.83A87.74,87.74,0,0,0,1312.05,503.53Z" transform="translate(-22.96 -21.12)"/><path class="cls-15" d="M1327,492.37s-10.82,5.2-11.46,5.64-16.93,4.26-24.17,10.51-16,17.39-16,17.39,38.84-17,39.32-17.32S1327,492.37,1327,492.37Z" transform="translate(-22.96 -21.12)"/><path class="cls-9" d="M1297,458.42c5.6.77,11.69,3.74,14.23,8.81,4.14,8.08-.88,18.23-3.61,23.34-.57,1.06-1.46,1.7-1.68,2.28,2.82-6.36,6.52-13.27,5.62-20.23-.9-7.37-7.5-11.38-14.85-12.15Z" transform="translate(-22.96 -21.12)"/><path class="cls-8" d="M1318.73,496.44c1.16,5.56-3.71,11.27-10.87,12.76s-13.9-1.8-15.06-7.35,3.71-11.26,10.87-12.75S1317.58,490.89,1318.73,496.44Z" transform="translate(-22.96 -21.12)"/><path class="cls-16" d="M1309.49,488.93c7.08,5.48,2.74,15.69-7.57,17.84a16.39,16.39,0,0,1-5.82.17,14.57,14.57,0,0,0,11.76,2.26c7.16-1.49,12-7.2,10.87-12.76C1317.9,492.45,1314.18,489.64,1309.49,488.93Z" transform="translate(-22.96 -21.12)"/><path class="cls-5" d="M1405.42,408.43l.39.86,2.43,5.31.67,1.45,53.85-13.31,30.9-22.67-3.19-8.9-2.91.92-1.53,3.05-3.4.1-1.6,3-3.41,0-1.66,3-3.41-.05-1.73,2.94-3.4-.12-1.79,2.9-3.41-.19-1.85,2.86-3.4-.28-1.92,2.82-3.39-.37-2,2.77-3.38-.46-2.07,2.71-3.36-.55-2.16,2.64-3.35-.66-2.24,2.56-3.32-.78-2.35,2.47-3.28-.92-2.45,2.37-3.24-1.08-2.57,2.24-3.17-1.25-2.7,2.09-3.08-1.45-2.87,1Z" transform="translate(-22.96 -21.12)"/><path class="cls-11" d="M1408.69,415.32c-.71.07,17.24,32.95,19.88,42.53s14.51,42.53,14.51,42.53l87-34s-22.93-43.94-28.14-58.47-7.55-27.91-8.27-27.83S1432.14,412.76,1408.69,415.32Z" transform="translate(-22.96 -21.12)"/><path class="cls-9" d="M1478,496.57s11.08,17.21,39.11,10.53c25.82-6.15,23.34-34.05,9.68-35.08s-28,1.74-36.09-.9C1475.89,466.29,1470.11,488.5,1478,496.57Z" transform="translate(-22.96 -21.12)"/><path class="cls-10" d="M1510.93,461.34a19.17,19.17,0,0,0-.92,8.49,21.17,21.17,0,0,0,10.58,16c14.68,8.66,47,.21,40.37-16.63s-21.38-2.22-30.36-6.46c-4-1.9-6.65-5.7-11.09-6.43C1515.93,455.73,1512,458.58,1510.93,461.34Z" transform="translate(-22.96 -21.12)"/><path class="cls-10" d="M1532.21,402.84A19.4,19.4,0,0,0,1539,408a21.22,21.22,0,0,0,19.17-.94c14.93-8.22,24.17-40.36,6.28-43.21s-12.81,17.26-21,22.82c-3.69,2.49-8.3,2.8-11.18,6.26C1529.93,395.68,1530.38,400.5,1532.21,402.84Z" transform="translate(-22.96 -21.12)"/><path class="cls-10" d="M1476.16,480.7a26.51,26.51,0,0,1-18.38,2.5c-4.58-1.06-15.13-1.65-20.93,3.92-10.55,10.11-5.42,25.37,9.7,31.37,13.25,5.25,50.9,1.8,50.83-25.48C1497.32,473.92,1485.81,475.61,1476.16,480.7Z" transform="translate(-22.96 -21.12)"/><path class="cls-12" d="M1504.47,427.59c3.83,10.74-8.82,25.06-28.25,32s-38.28,3.83-42.11-6.91,8.82-25.07,28.24-32S1500.64,416.84,1504.47,427.59Z" transform="translate(-22.96 -21.12)"/><path class="cls-9" d="M1442.12,508.26c2.44-1.85,3.8-5.23,5.18-7.9a36.34,36.34,0,0,0,3.53-9.62c.17-.92-1-1.13-1.46-.44-1.72,2.86-3.12,6-4.58,8.95-1.29,2.65-3.38,5.34-3.94,8.25a.81.81,0,0,0,1.27.76Z" transform="translate(-22.96 -21.12)"/><path class="cls-9" d="M1451.19,511c4.56-1.87,8.13-13.45,9.2-18.3.26-1.18-1.7-1.8-2.06-.62a61.42,61.42,0,0,1-3.95,9.61c-1.3,2.6-4,5.63-4.15,8.53a.72.72,0,0,0,1,.78Z" transform="translate(-22.96 -21.12)"/><path class="cls-9" d="M1464.77,508.75c1-1.84,1.08-3.87,1.4-5.91.35-2.23,1-4.41,1.32-6.63a1.76,1.76,0,0,0-3.35-1c-1.53,3.68-3,9.7-1.32,13.5a1.07,1.07,0,0,0,2,0Z" transform="translate(-22.96 -21.12)"/><path class="cls-9" d="M1474.54,506.19c.45-2.66.72-6.33-.75-8.73-1.06-1.72-3.75,2.24-.89,8.9a.86.86,0,0,0,1.64-.17Z" transform="translate(-22.96 -21.12)"/><path class="cls-9" d="M1477.65,497.46c1.29,6.19,4.41,4.51,4.13,3a7.87,7.87,0,0,0-2.47-3.89,1,1,0,0,0-1.66.91Z" transform="translate(-22.96 -21.12)"/><path class="cls-9" d="M1520.14,464.9a17.39,17.39,0,0,0-2.62,5.8c-.5,1.9-1.28,4.05-.15,5.82a1,1,0,0,0,1.43.22c1.37-1.28,1.35-3.08,1.72-4.82.44-2.12,1-4.14,1.28-6.28.12-.88-1.11-1.54-1.66-.74Z" transform="translate(-22.96 -21.12)"/><path class="cls-9" d="M1525.3,467.68c-1,2.51-2.69,9.76-1.87,12.47a1.12,1.12,0,0,0,2,0c.83-1.74.69-3.79.9-5.69.23-2.1.58-4.18.71-6.29.07-1-1.37-1.6-1.78-.53Z" transform="translate(-22.96 -21.12)"/><path class="cls-9" d="M1532.36,468.43c-.21,2.26-.72,10,.08,12.34a1.06,1.06,0,0,0,1.94,0c1.13-3.68.24-8.57-.22-12.33-.12-1-1.7-1.1-1.8-.05Z" transform="translate(-22.96 -21.12)"/><path class="cls-9" d="M1538.86,469.32a14.24,14.24,0,0,0,0,4.42c.32,3.46.33,5.34,1.79,5.45a1.54,1.54,0,0,0,1.8-1.71c0-1.12-.75-6.68-1.59-8.38a1.07,1.07,0,0,0-2,.22Z" transform="translate(-22.96 -21.12)"/><path class="cls-9" d="M1546.11,469.56c-1.13,2.39-.85,5.92,1,6.11a1.44,1.44,0,0,0,1.62-.76c.76-1.46-1-2.6-.79-4.82a.94.94,0,0,0-1.78-.53Z" transform="translate(-22.96 -21.12)"/><path class="cls-9" d="M1541.56,397c1.25,2.44,2.79,2.35,4.11,7.44.41,1.59,3,.91,2.8-.69-.47-3-2.68-7.41-6.07-7.79-.53-.06-1.13.48-.84,1Z" transform="translate(-22.96 -21.12)"/><path class="cls-9" d="M1545.45,393.61c7.26,6.45,6.17,8.73,8.81,10a1,1,0,0,0,1.35-.73c.47-2.26-1.82-4.71-3.22-6.26a17.78,17.78,0,0,0-6.08-4.4.83.83,0,0,0-.86,1.4Z" transform="translate(-22.96 -21.12)"/><path class="cls-9" d="M1550.54,387.69c8.2,5.66,8.42,9.12,10.94,8.85a.9.9,0,0,0,.73-.54c.72-2.18-2.2-4.21-3.66-5.49a25.4,25.4,0,0,0-7.1-4.32c-.89-.37-1.77.91-.91,1.5Z" transform="translate(-22.96 -21.12)"/><path class="cls-9" d="M1555,380.79c2.9,2.06,6.08,3.68,8.84,5.95,1.78,1.47,4-1.35,2.25-2.79-3.06-2.43-6.37-4.53-10.33-4.87-.89-.08-1.61,1.11-.76,1.71Z" transform="translate(-22.96 -21.12)"/><path class="cls-9" d="M1564,376.29a1.5,1.5,0,0,0,1.7.49h0a.88.88,0,0,0,.71-.51l-.09.08a1.5,1.5,0,0,0-.22-2,7,7,0,0,0-6.07-1.64c-.88.17-1.07,1.62,0,1.7A6.23,6.23,0,0,1,1564,376.29Z" transform="translate(-22.96 -21.12)"/><path class="cls-10" d="M1553.48,428.73c.92,3.8,3.74,7.76,6.25,10.3,7.09,7.2,17.74,10.85,29,10.54,28.23-.77,66-33.72,41.67-48s-31.87,12.91-48.19,14.58c-7.33.74-14.36-1.69-21.22.7C1555.48,418.75,1552.54,424.8,1553.48,428.73Z" transform="translate(-22.96 -21.12)"/><path class="cls-9" d="M1572.69,423.53c-1.26,1.49-.15,3.86-.06,5.51.11,2-.9,4.56.26,6.36a1,1,0,0,0,1.31.25c2-1.53,1.6-4.45,1.39-6.51-.17-1.76-.27-4.86-2.63-5.67a.26.26,0,0,0-.27.06Z" transform="translate(-22.96 -21.12)"/><path class="cls-9" d="M1581.37,422.31c0,2.79.84,5.43,1.21,8.21s-.19,5.67,1,8.2a1.07,1.07,0,0,0,1.75-.05c1.37-2.4.68-5.52.31-8.07-.43-3-.94-5.88-2.78-8.5-.35-.5-1.54-.51-1.53.21Z" transform="translate(-22.96 -21.12)"/><path class="cls-9" d="M1591.81,419.89c3.66,12.36,2.36,15.3,4.77,18,1.42,1.61,5.9,0-3.25-18.41-.33-.67-1.73-.35-1.52.38Z" transform="translate(-22.96 -21.12)"/><path class="cls-9" d="M1600.09,416.17c-.48,2.67,2.19,6.11,3.51,8.51,1.59,2.91,3.22,6.18,5.53,8.76.77.86,2.6.18,2.33-.86-.84-3.11-2.76-6.28-4.38-9.18-1.34-2.41-2.71-6.29-5.49-7.78a1,1,0,0,0-1.5.55Z" transform="translate(-22.96 -21.12)"/><path class="cls-9" d="M1608.39,410.39c3.48,4.56,6.44,9.47,10.11,13.92,1.62,2,4.92-.08,4.06-2-2.29-5.25-7.51-9.75-13-12.88-.85-.48-1.65.36-1.16,1Z" transform="translate(-22.96 -21.12)"/><path class="cls-9" d="M1617.44,406.9c1.39,2,4.26,6.49,7.11,6.42,1,0,2-.48,2-1.39.26-2.45-5.21-5.08-7.39-6.2-.9-.47-2.4.27-1.77,1.17Z" transform="translate(-22.96 -21.12)"/><path class="cls-17" d="M1199.38,390a83.16,83.16,0,0,1-26.27,6.35c-18.73,1.33-36-6.86-47.27-22.47-10.85-15-14.43-34.12-8.91-47.63,6.48-15.84,24.54-24.2,39-24.27a34.81,34.81,0,0,1,13.9,2.67c3.6-8.11,10.07-14.81,17.74-18,10.2-4.28,24.33-2.72,36,4A44.6,44.6,0,0,1,1246,324.07c1.84,13.68-3,28.41-13.62,41.48A85,85,0,0,1,1199.38,390Zm-53.68-67.27c-5.11,2.14-9.67,5.77-11.61,10.54-2.59,6.32-1.1,18.89,6.76,29.74,4.38,6.05,14.24,16,31,14.85a67.59,67.59,0,0,0,46.17-24c7.37-9.06,10.79-18.76,9.63-27.31a26.06,26.06,0,0,0-13.2-19.88c-7.33-4.2-15.59-4.66-19.64-3-4.3,1.8-8.06,6.76-9.14,12.07-.58,2.84-.26,5.4.83,6.52a9.28,9.28,0,0,1-3.9,15.31,43.06,43.06,0,0,1-2.24,4,9.27,9.27,0,0,1-15.7-9.85c2.32-3.69,2.39-5.59,2.23-6-1.95-4.65-7.61-5.32-10.8-5.3A27.52,27.52,0,0,0,1145.7,322.73Z" transform="translate(-22.96 -21.12)"/><path class="cls-9" d="M1237.49,319.41a84.92,84.92,0,0,1-10.07,6.07c.06.35.13.7.18,1.07,1.16,8.54-2.26,18.22-9.6,27.27a79.87,79.87,0,0,0,13-4.23,98,98,0,0,0,13.57-7,46.09,46.09,0,0,0,1.4-18.52,50.45,50.45,0,0,0-1.2-6A8.29,8.29,0,0,0,1237.49,319.41Z" transform="translate(-22.96 -21.12)"/><path class="cls-9" d="M1156.63,375.61a36.61,36.61,0,0,1-15.78-12.6c-.62-.86-1.19-1.73-1.73-2.6-5.51,4.72-10.83,8.76-14.66,11.47.44.67.9,1.34,1.38,2a56,56,0,0,0,15.28,14.5C1145.37,385.19,1150.93,380.78,1156.63,375.61Z" transform="translate(-22.96 -21.12)"/><path class="cls-17" d="M1228.25,339.92c-16,6.72-39.13,11.75-55.1-4.71a9.27,9.27,0,0,1,13.3-12.91c15.14,15.61,49.31-7.22,49.65-7.46a9.27,9.27,0,1,1,10.52,15.26A110.87,110.87,0,0,1,1228.25,339.92Z" transform="translate(-22.96 -21.12)"/><path class="cls-17" d="M1133.27,382.54a9.27,9.27,0,0,1-8.47-16.42h0c8.33-5.19,31.74-21.48,39.81-34.34a9.27,9.27,0,1,1,15.7,9.85c-12,19.12-44.36,39.38-45.73,40.23A9.07,9.07,0,0,1,1133.27,382.54Z" transform="translate(-22.96 -21.12)"/><path class="cls-11" d="M362.92,449.93s-2.71,9.41,5.27,15,27.94-8.94,34.65-12,9.26-.64,9.26-.64-15.17-30.81-38.64-26C359.46,429.15,358.77,439.24,362.92,449.93Z" transform="translate(-22.96 -21.12)"/><path class="cls-5" d="M394.75,451.84c-2.35-.38-8.1-1.62-10.3-3.32a206.65,206.65,0,0,1,22.06,1.4c-3.65-.84-8.34-1.72-13.39-2.41.4-3.1,6.46-4.18,6.53-4.19a.32.32,0,0,0-.11-.63c-.28.05-6.59,1.17-7.05,4.74-2.29-.3-4.64-.56-7-.75.75-5.55,9.21-8.35,9.3-8.38a.32.32,0,0,0,.21-.4.31.31,0,0,0-.4-.2c-.38.12-9,3-9.75,8.93-2.49-.19-5-.31-7.39-.33,0-7.09,9.83-12.22,9.93-12.27a.32.32,0,0,0-.29-.57c-.44.22-10.3,5.38-10.28,12.84a59.78,59.78,0,0,0-8.5.54c-1-7.13,6.5-13.85,6.58-13.92a.33.33,0,0,0,0-.45.32.32,0,0,0-.46,0c-.34.3-7.9,7-6.78,14.49-1.11.18-2.17.4-3.16.66-11,3.05-13.52-4.76-14.17-5.53a1.29,1.29,0,0,0-1.54-.68c-2.65.83,1.34,6.36,4.31,8.29,5.07,3.09,9,1.66,14.34.41a15.72,15.72,0,0,0,10.67,9.2h.06a.32.32,0,0,0,.06-.64,15,15,0,0,1-10.15-8.71,44.75,44.75,0,0,1,6.35-1c2.48,4.65,11.48,6,11.89,6.08h0a.34.34,0,0,0,.32-.27.33.33,0,0,0-.27-.37c-.1,0-8.76-1.32-11.29-5.5,2.7-.23,5.5-.35,8.35-.36,2.28,2.49,10.75,3.88,11.13,3.94a.32.32,0,0,0,.11-.63Z" transform="translate(-22.96 -21.12)"/><path class="cls-15" d="M257.72,439.94s-40-8.94-53.64,28.52-6.39,71.53,18.3,77.06,29.81-13.62,56.2-15.75,45.13-50.66,23.84-71.95S257.72,439.94,257.72,439.94Z" transform="translate(-22.96 -21.12)"/><path class="cls-10" d="M274.32,492.76a27.67,27.67,0,1,1-27.67-27.67A27.67,27.67,0,0,1,274.32,492.76Z" transform="translate(-22.96 -21.12)"/><path class="cls-17" d="M246.65,465.09a28.84,28.84,0,0,0-3.62.23,27.68,27.68,0,0,1,0,54.88,27.06,27.06,0,0,0,3.62.24,27.68,27.68,0,0,0,0-55.35Z" transform="translate(-22.96 -21.12)"/><path class="cls-17" d="M285.64,612.21c-2.76-5.11-3.26-10.49.63-15.92,8.67-12.1,28.17-17.4,45.42-19.9,58.82-8.52,129,24.27,133.52,61.31S429,706.24,396.36,706.24s-62.64-43.42-68-53.22c-5-9.12-15-15-23.86-21.89C297.61,625.77,289.46,619.26,285.64,612.21Z" transform="translate(-22.96 -21.12)"/><path class="cls-9" d="M465.21,637.7c-4.5-37-74.7-69.83-133.52-61.31-17.25,2.49-36.75,7.8-45.42,19.9l-.2.28c8.52-3.56,18.4-5.7,27.64-7,58.82-8.51,129,24.27,133.53,61.31,2.15,17.75-6.07,34.23-18.82,46.58C450.43,685.52,468.28,662.89,465.21,637.7Z" transform="translate(-22.96 -21.12)"/><path class="cls-12" d="M414.55,660.05c0,9.65-10.7,17.46-23.89,17.46s-23.88-7.81-23.88-17.46,10.69-17.46,23.88-17.46S414.55,650.41,414.55,660.05Z" transform="translate(-22.96 -21.12)"/><path class="cls-9" d="M405.22,660.05c0,5.88-6.52,10.64-14.56,10.64s-14.55-4.76-14.55-10.64,6.52-10.64,14.55-10.64S405.22,654.18,405.22,660.05Z" transform="translate(-22.96 -21.12)"/><path class="cls-12" d="M412.64,675.32c0,2.56-2.49,4.63-5.57,4.63s-5.57-2.07-5.57-4.63,2.5-4.63,5.57-4.63S412.64,672.76,412.64,675.32Z" transform="translate(-22.96 -21.12)"/><path class="cls-12" d="M360.81,603s-37.86,7.87-41.94,28.52C318.87,631.52,339.55,608.75,360.81,603Z" transform="translate(-22.96 -21.12)"/><path class="cls-12" d="M382.77,610.66s-52,14.39-47,37.25C335.76,647.91,355.22,620.88,382.77,610.66Z" transform="translate(-22.96 -21.12)"/><path class="cls-17" d="M181.81,665.35s22.31-22.27-5.54-32.6-34.55,16.42-34.55,16.42S97.59,623.22,90.83,663s25.44,29.73,25.44,29.73-19.79,36.81,11.6,36.81,29.27-25.1,29.27-25.1,30.81,27.61,44-3.35S181.81,665.35,181.81,665.35Zm8.38,31.45c-10.51,24.68-35.08,2.67-35.08,2.67s1.69,20-23.35,20-9.25-29.36-9.25-29.36-25.68,8-20.29-23.7,40.58-11,40.58-11,5.35-21.32,27.56-13.09,4.42,26,4.42,26S200.7,672.11,190.19,696.8Z" transform="translate(-22.96 -21.12)"/><path class="cls-5" d="M477.19,458.76s-7.57-35.07-27.5-31.79-14.63,18.67-8.32,18.67,4.63-11.2,15.05-7.74,16.48,20.86,16.48,20.86Z" transform="translate(-22.96 -21.12)"/><path class="cls-8" d="M454.74,472.63s-16.4-5-26,9.84,2,48.69,27.75,69.63,42.64,30.53,49.7,27.25,5.81-7.82,5.81-7.82,24.72,10.85,26.49-12.87c0,0,18.41,11.1,21.19-14.13s-14.38-111-47.18-106.46c0,0-16.17-.25-19.82,16.65C492.69,454.72,460,436.56,454.74,472.63Z" transform="translate(-22.96 -21.12)"/><path class="cls-10" d="M450.2,480.71c-4.21-2.84-16.47-3.53-14.54,14.13s55.41,77.95,64.49,75.43S471.46,495,450.2,480.71Z" transform="translate(-22.96 -21.12)"/><path class="cls-10" d="M485.94,463.3c-3.41-3.58-15.81-9.08-19.35,4s49.7,107.22,57.53,96.87S504.51,482.86,485.94,463.3Z" transform="translate(-22.96 -21.12)"/><path class="cls-10" d="M520.84,451.19c-2.59-3.22-11.5-7.79-16.4-2-10.6,12.49,33.3,114,39.61,102.93S537.07,471.36,520.84,451.19Z" transform="translate(-22.96 -21.12)"/><path class="cls-5" d="M303.71,711.05s-3,8.09-40.45,21.29c-41.78,14.71-61.31,17.45-73.65,57.47a290,290,0,0,1,40.44-6.38C270,780.23,299.55,746.49,303.71,711.05Z" transform="translate(-22.96 -21.12)"/><path class="cls-5" d="M303.71,710.52s3.75,5.53,9.15,39.91c8.73,55.56-31.29,77.7-60.67,67.06,0,0,31.72-16.4,36.64-42.15C293.24,752.22,303.71,710.52,303.71,710.52Z" transform="translate(-22.96 -21.12)"/><path class="cls-12" d="M264.11,755.33a13,13,0,1,1-13-13A13,13,0,0,1,264.11,755.33Z" transform="translate(-22.96 -21.12)"/><path class="cls-12" d="M239.42,764.91a8.94,8.94,0,1,1-8.94-8.94A8.95,8.95,0,0,1,239.42,764.91Z" transform="translate(-22.96 -21.12)"/><path class="cls-12" d="M221.27,772.57a8.94,8.94,0,1,1-8.94-8.94A8.94,8.94,0,0,1,221.27,772.57Z" transform="translate(-22.96 -21.12)"/><circle class="cls-12" cx="250.09" cy="722.72" r="8.94"/><path class="cls-11" d="M255,743.83c18.14-2.66,37.71-21.2,45.39-29.16-4.41,3.59-14.46,9.69-37.09,17.67-41.78,14.71-61.31,17.45-73.65,57.47C189.61,789.81,231.75,747.24,255,743.83Z" transform="translate(-22.96 -21.12)"/><path class="cls-11" d="M303.45,713c-4.18,17-59.08,54.06-78.53,58.92-20.23,5.05-35.31,17.9-35.31,17.9a290,290,0,0,1,40.44-6.38C269.24,780.29,298.47,747.71,303.45,713Z" transform="translate(-22.96 -21.12)"/><path class="cls-7" d="M303.64,710.3s-14.8-.43-11.82,4.15,9.1-.26,9.1-.26-4.74,2.71-4,6.6,5.08,2.07,6.08,0a7.68,7.68,0,0,0,.68-4.11s.07,5.86,2.85,6.39,0-7,0-7,2.31,3.24,3.75,1.81S303.64,710.3,303.64,710.3Z" transform="translate(-22.96 -21.12)"/><path class="cls-7" d="M303,713.39a25,25,0,0,0,1.59-9.58c.06-8.74-2.17-10.71.11-11.15a1.29,1.29,0,0,1,1.5,1C306.45,695.21,306.67,707.09,303,713.39Z" transform="translate(-22.96 -21.12)"/><path class="cls-11" d="M293.06,796.41a15.38,15.38,0,0,1-2.08,11.2c-3.77,5.24-13.82,5.76-17.93,3a16,16,0,0,0,7.35.67c7.62-1.1,9.85-3.56,11.33-7.51A23.48,23.48,0,0,0,293.06,796.41Z" transform="translate(-22.96 -21.12)"/><path class="cls-11" d="M302,770c10.56,8.45,5.67,26-8.94,26.4C306.77,793.51,310.42,779.67,302,770Z" transform="translate(-22.96 -21.12)"/><path class="cls-11" d="M303.71,745.43a15,15,0,0,1,7.58,14,11.67,11.67,0,0,1-.34,2c-.16.38-1.48,6.24-8.95,8.54C313.21,763.8,311.81,752.73,303.71,745.43Z" transform="translate(-22.96 -21.12)"/><path class="cls-7" d="M1164.73,411.26c-5.49-2.36-12.68,2.07-16,9.9s-1.64,16.1,3.85,18.46,12.69-2.07,16.06-9.9S1170.23,413.62,1164.73,411.26Zm-1.72,4c3,1.27,4.71,3.77,3.93,5.58s-3.8,2.25-6.76,1-4.71-3.76-3.92-5.58S1160.06,414,1163,415.27Zm-8.19,19c-4.16-1.79-6.56-5.51-5.35-8.3s5.55-3.62,9.71-1.83,6.56,5.51,5.35,8.31S1159,436.09,1154.82,434.3Z" transform="translate(-22.96 -21.12)"/><path class="cls-18" d="M1128.72,432.94a37.38,37.38,0,0,0-9.34,13l-44.67,103.83a12.42,12.42,0,0,0,6.59,16.29l59.37,25.54A12.41,12.41,0,0,0,1157,585.2l44.67-103.83a37.43,37.43,0,0,0,3-15.74Z" transform="translate(-22.96 -21.12)"/><path class="cls-18" d="M1128.72,432.94a37.38,37.38,0,0,0-9.34,13l-44.67,103.83a12.42,12.42,0,0,0,6.59,16.29l59.37,25.54A12.41,12.41,0,0,0,1157,585.2l44.67-103.83a37.43,37.43,0,0,0,3-15.74Z" transform="translate(-22.96 -21.12)"/><path class="cls-8" d="M1201.7,481.37,1157,585.21a12.44,12.44,0,0,1-16.35,6.42l-59.38-25.54a12.42,12.42,0,0,1-6.58-16.29L1119.38,446a37.56,37.56,0,0,1,9.34-13l76,32.68A37.55,37.55,0,0,1,1201.7,481.37Z" transform="translate(-22.96 -21.12)"/><path class="cls-10" d="M1090.46,556.57l44.66-103.84a37.49,37.49,0,0,1,9.35-13l-15.75-6.78a37.38,37.38,0,0,0-9.34,13l-44.67,103.83a12.42,12.42,0,0,0,6.59,16.29l15.74,6.77A12.41,12.41,0,0,1,1090.46,556.57Z" transform="translate(-22.96 -21.12)"/><path class="cls-16" d="M1201.7,481.37,1157,585.21a12.44,12.44,0,0,1-16.35,6.42l-24.28-10.44a12.5,12.5,0,0,0,16.47-6.37L1177.54,471a37.27,37.27,0,0,0,3-15.75l24.18,10.4A37.55,37.55,0,0,1,1201.7,481.37Z" transform="translate(-22.96 -21.12)"/><path class="cls-6" d="M1204.71,465.63l-76-32.69h0a6.57,6.57,0,0,1,8.65-3.4L1201.23,457a6.57,6.57,0,0,1,3.48,8.62Z" transform="translate(-22.96 -21.12)"/><rect class="cls-6" x="1114.89" y="508.65" width="14.05" height="89.6" transform="translate(147.22 1344.25) rotate(-66.72)"/><rect class="cls-19" x="1129.98" y="678.56" width="46.84" height="106.39" transform="translate(-229.82 835.1) rotate(-37.62)"/><polygon class="cls-6" points="1109.97 637.31 1106.3 637.53 1105.93 639.55 1103.49 639.7 1103.12 641.72 1100.68 641.87 1100.31 643.88 1097.86 644.03 1097.5 646.05 1095.05 646.2 1094.68 648.22 1092.24 648.37 1091.87 650.39 1089.43 650.53 1089.06 652.55 1086.61 652.7 1086.25 654.72 1083.8 654.87 1083.43 656.89 1080.99 657.04 1080.62 659.06 1078.18 659.21 1077.81 661.22 1075.37 661.37 1075 663.39 1072.55 663.54 1072.19 665.56 1069.74 665.71 1069.37 667.73 1066.93 667.87 1066.56 669.89 1064.12 670.04 1063.52 673.31 1063.38 673.41 1063.5 673.45 1063.48 673.54 1063.78 673.52 1074.53 676.45 1079.42 682.8 1116.52 654.21 1111.63 647.86 1110.07 637.43 1109.93 637.54 1109.97 637.31"/><polygon class="cls-6" points="1195.98 748.9 1186.04 744.41 1181.46 738.47 1144.36 767.06 1148.94 773.01 1149.28 784.46 1149.19 784.75 1149.29 784.76 1149.29 784.88 1149.43 784.77 1152.8 785.11 1153.53 782.74 1155.61 782.94 1156.34 780.57 1158.42 780.78 1159.15 778.4 1161.23 778.61 1161.96 776.23 1164.05 776.44 1164.78 774.07 1166.86 774.27 1167.59 771.9 1169.67 772.11 1170.4 769.73 1172.48 769.94 1173.21 767.56 1175.3 767.77 1176.03 765.4 1178.11 765.61 1178.84 763.23 1180.92 763.44 1181.65 761.06 1183.73 761.27 1184.46 758.89 1186.55 759.1 1187.27 756.73 1189.36 756.94 1190.09 754.56 1192.17 754.77 1192.9 752.39 1194.98 752.6 1196.08 749.03 1195.84 749.01 1195.98 748.9"/><rect class="cls-12" x="1139.79" y="690.35" width="27.05" height="82.6" transform="matrix(0.79, -0.61, 0.61, 0.79, -229.77, 835.07)"/><polygon class="cls-7" points="1079.42 682.8 1094.43 686.08 1115.85 669.57 1116.52 654.21 1079.42 682.8"/><polygon class="cls-7" points="1144.36 767.06 1144.85 751.51 1166.28 735 1181.46 738.47 1144.36 767.06"/><path class="cls-8" d="M986.13,175.13c2.34-9.21,5.08-18.36,14.75-22.32,8.37-3.43,18.32.13,23.82,7,16,19.92-16.19,56.54-35.75,73.17-5.52,4.7-13.39,8.44-16.22,15.3l1.77-3L972,248.16c-3.65,4.14-.22,11.42,5.63,9.68,7.53-2.24,7.87-1.49,20.6-11.92A167.76,167.76,0,0,0,1015,230.15c10.6-11.41,20.51-24.32,26.3-38.88,14.61-36.72-17.73-63.28-44.4-53.67-14.16,5.1-28.22,21.66-23.46,37.53,1.83,6.09,11.09,6.48,12.74,0Z" transform="translate(-22.96 -21.12)"/><path class="cls-8" d="M976.48,301.88c10.22,0,10.24-15.88,0-15.88s-10.24,15.88,0,15.88Z" transform="translate(-22.96 -21.12)"/><path class="cls-8" d="M876.1,89.25c-6-16.16-1.6-36.78,13.21-46.81,14.42-9.76,35.11-6.69,47.12,5.58,15.54,15.9,12.9,44.43,6.6,63.8a89.08,89.08,0,0,1-16,29.35c-7.82,9.37-17.31,17.12-26.28,25.34-18.55,17-39.65,44.06-27,70.35,3.22,6.69,12.57,1.72,11.32-4.78-7.69-39.93,38.77-58.13,60.36-90.59a106.41,106.41,0,0,0,15-35c5.49-24.11,4.26-55.13-16-72.32-16.84-14.28-42.9-18-61.88-5.59-21,13.74-30.09,43.08-18.22,65.64,3.37,6.39,14.46,2,11.87-5Z" transform="translate(-22.96 -21.12)"/><path class="cls-8" d="M907.22,277.25A14.19,14.19,0,1,1,893,263.07,14.18,14.18,0,0,1,907.22,277.25Z" transform="translate(-22.96 -21.12)"/><path class="cls-8" d="M1291.19,788.25c-5,7.42-12.34,11.24-16.36,8.53s-3.2-10.94,1.82-18.36,12.34-11.24,16.36-8.53S1296.21,780.82,1291.19,788.25Z" transform="translate(-22.96 -21.12)"/><path class="cls-10" d="M1374.52,809.9a13.75,13.75,0,1,1-13.74-13.74A13.74,13.74,0,0,1,1374.52,809.9Z" transform="translate(-22.96 -21.12)"/><path class="cls-11" d="M1447.1,791.86a13.75,13.75,0,1,1-13.75-13.75A13.75,13.75,0,0,1,1447.1,791.86Z" transform="translate(-22.96 -21.12)"/><path class="cls-7" d="M1313.14,829.4c-2.42,3.59-9.85,2.81-16.59-1.75s-10.22-11.15-7.8-14.74,9.86-2.81,16.59,1.74S1315.57,825.8,1313.14,829.4Z" transform="translate(-22.96 -21.12)"/><path class="cls-11" d="M1341.21,770.78a10.51,10.51,0,1,1-10.51-10.51A10.51,10.51,0,0,1,1341.21,770.78Z" transform="translate(-22.96 -21.12)"/><path class="cls-8" d="M1280.22,664.51c0,3.37-6.27,6.1-14,6.1s-14-2.73-14-6.1,6.26-6.09,14-6.09S1280.22,661.15,1280.22,664.51Z" transform="translate(-22.96 -21.12)"/><ellipse class="cls-10" cx="1189.43" cy="588.4" rx="14.9" ry="6.83"/><path class="cls-20" d="M988.83,382.32c-18.67-30-51.57-52.54-88.08-52.61-65.83-.12-104.94,31.27-126.58,66.73l-2.11,3.45C722.16,482,694.8,540.17,607,576.16,400.9,660.59,447.74,887.6,575.88,970.45c203.31,131.46,332.34,1.8,402.43-154.23C1086.9,574.51,1002.05,403.59,988.83,382.32Z" transform="translate(-22.96 -21.12)"/><path class="cls-8" d="M763.1,1126.77s-49.05,83.1-68.21,157.72c-13.24,51.56-19.91,207-19.91,207h417.77s-46.63-310.8-134.21-350.59S763.1,1126.77,763.1,1126.77Z" transform="translate(-22.96 -21.12)"/><path class="cls-10" d="M1008.49,697.92c-60.66-5.69-225,9.18-299.48,21.23-10.64,1.72,51.66,371.41,34.62,436.39l-34.69,71s208.91,44.87,313.92-11.89l-58.69-89.55C974.63,1077.24,1055,702.29,1008.49,697.92Z" transform="translate(-22.96 -21.12)"/><path class="cls-21" d="M810.59,602s-9.06,220.63,43.35,225.16,53.65-129.93,54.32-146.43l3.64-89.88Z" transform="translate(-22.96 -21.12)"/><path class="cls-22" d="M810,648.89c33.45,39.15,82,33.07,99.2,7.51l2.66-65.57L810.59,602S809.79,621.43,810,648.89Z" transform="translate(-22.96 -21.12)"/><path class="cls-21" d="M1012.65,1177.85c25.89-8.37,121.14-449.38-11-480.37,0,0,3.05,9.71-1.51,91-5.33,94.73-33.29,303.46-33.29,303.46s-119.18-29.7-213.06-19.16L675,1118.61l-12,51.24s28.53,28.53,34.49,28.53-9.8-25.12-9.8-25.12S702.34,1188,706,1184.33s-6.62-23.42-6.62-23.42l56.86-30.23S986.76,1186.21,1012.65,1177.85Z" transform="translate(-22.96 -21.12)"/><path class="cls-17" d="M1001.5,697.38s-3.89.89-4.86,91.06c-.53,48.5-8.16,126.72-15.76,191.6,29.29-1.74,70.63-.09,99.06,4C1101.71,848.59,1089.62,700.32,1001.5,697.38Z" transform="translate(-22.96 -21.12)"/><path class="cls-23" d="M642.52,813.11c-1.11,92,10.22,232,69,311.34,15.35,20.72,44.71-38.68,44.71-38.68s-22.72-370.45-47.29-366.61C686.4,722.69,643.44,737.39,642.52,813.11Z" transform="translate(-22.96 -21.12)"/><path class="cls-17" d="M750.34,1002.09c-8.31-109-24.43-285.59-41.43-282.93-22.51,3.53-73.77,18.23-74.69,94-.74,60.8,4,145.73,24.27,217.1,18.32-10.52,45.49-23.44,67.06-24.91A195.41,195.41,0,0,0,750.34,1002.09Z" transform="translate(-22.96 -21.12)"/><path class="cls-23" d="M814.68,624A139.45,139.45,0,0,0,810,643c-1.92,10.86,2.34,21.5-6,32.15s22.1,74.31,22.1,74.31,6.42-23.44,3.65-43.66.75-70.14,4.9-74.29S814.68,624,814.68,624Z" transform="translate(-22.96 -21.12)"/><path class="cls-24" d="M785.51,578.42l-22.4,24.26L747.2,624.61s3.83,39.81,1.7,46.83-1.06,11.92,1.49,21.08S769.55,746.8,770.61,764c0,0-30.54,94.63-37.57,111.23s-37.47,131.85-43.74,162.53c-4.2,20.5,13.59,89.06,33.26,97.57,19.19,8.28,41.94,11.06,60.61-97.57,4.73-27.48,36.41-242,36.41-251s8.9-18.74,9.57-37.38c.8-22-21.07-46.92-21.07-46.92l14.37-23.31,12.77-1.59s13.89,13.89,17.88,9.89-7.34-16.92-7.34-16.92,4.47,5.32,8.19,1.6-17.13-27.46-17.13-27.46L805.21,630l-6.39,1-27.29,25.54-1.45-30,11.5-21.4S802.86,582.67,785.51,578.42Z" transform="translate(-22.96 -21.12)"/><path class="cls-25" d="M843.2,669.31c-1-.43-2-.88-3-1.35s-2-1-2.93-1.43-1.93-1-2.9-1.49-1.92-1-2.87-1.53l.62.17c-2,.11-3.91.21-5.86.27s-3.9.1-5.85.12l1-.34q-6.17,5.07-12.6,9.82c-2.16,1.56-4.32,3.13-6.53,4.62s-4.44,3-6.76,4.34c1.83-2,3.75-3.83,5.69-5.67s3.93-3.61,5.92-5.38q6-5.26,12.31-10.18l.45-.36h.54c2,0,3.9.07,5.85.13s3.9.15,5.86.26l.39,0,.22.16c.9.61,1.79,1.23,2.66,1.87s1.77,1.26,2.64,1.92,1.75,1.29,2.6,2S842.37,668.61,843.2,669.31Z" transform="translate(-22.96 -21.12)"/><path class="cls-25" d="M843.2,665.69c-1-1.11-1.9-2.26-2.84-3.41l-2.74-3.47-2.68-3.52-2.61-3.56.69.52c-1.78-.47-3.54-1-5.32-1.49s-3.53-1-5.3-1.55q-5.28-1.61-10.52-3.34l1.34-.21-5.31,3.53-5.38,3.44c-1.82,1.11-3.62,2.25-5.47,3.32s-3.69,2.14-5.58,3.14c1.58-1.43,3.2-2.83,4.84-4.19s3.31-2.69,5-4l5.06-3.91,5.11-3.81.59-.43.76.22c3.53,1,7,2.14,10.55,3.26,1.74.58,3.5,1.14,5.23,1.75s3.49,1.18,5.22,1.81l.49.18.21.34,2.28,3.79,2.22,3.82,2.15,3.87C841.85,663.06,842.55,664.36,843.2,665.69Z" transform="translate(-22.96 -21.12)"/><path class="cls-21" d="M791.39,413.28s-13.8,31.05-13.8,95.75,15.53,101.8,45.72,123.36,65,12,82,0C935.86,610.8,965.65,530.6,957,473.66S922.52,304.58,791.39,413.28Z" transform="translate(-22.96 -21.12)"/><path class="cls-20" d="M837.11,348.14c-3,0-42.7,15.53-61.68,56.08s0,95.75,0,95.75,14.43-36.23,26.63-39.25,58.78,12.08,77.32-6.47,41.41-56.93,41.41-56.93-4.53,48.95-18.54,63,42.26,22,55.85,4.75S978.16,519,978.16,519s6.9-91.44-36.66-138.46S837.11,348.14,837.11,348.14Z" transform="translate(-22.96 -21.12)"/><path class="cls-5" d="M645.06,240.22s36.66,32.21,16.12,74.35S571.45,394.93,559,393.85c-10.21-.89-17.06-6.82-23.75-14-5.8-6.21-.67-4.54,10.26-33s19.94-25.17,26.13-56.52S619.55,219.38,645.06,240.22Z" transform="translate(-22.96 -21.12)"/><path class="cls-11" d="M558,379.13a24.23,24.23,0,0,1-18.4,2.41l-.09,0c-8.22-2.11-15.07-9.32-4.15-37.74s17.59-30.25,23.78-61.59,60.15-63.53,85.67-42.68a22.45,22.45,0,0,1,3.31,3.79c6,15.32,8,35.07-3.6,57.23C628.59,331.05,589.71,360.6,558,379.13Z" transform="translate(-22.96 -21.12)"/><path class="cls-12" d="M646.86,254.55a20.77,20.77,0,0,0-16.49-15.91c-24.87-4.45-62,20.5-66.7,44.44-4,20.26-8.21,28.59-13.54,39.14S521.55,374,542.9,378.94c11.53,2.67,25.07-11.12,33.76-17a307.53,307.53,0,0,0,24.69-18.59c7.84-6.58,18.18-14.26,23.73-23C629,314.08,654.94,289.72,646.86,254.55Z" transform="translate(-22.96 -21.12)"/><path class="cls-9" d="M578.44,283.38c-10.88,17.71-9.83,38.17,2.34,45.7s30.86-.73,41.75-18.45,9.83-38.17-2.34-45.7S589.33,265.66,578.44,283.38Z" transform="translate(-22.96 -21.12)"/><path class="cls-5" d="M610.09,467.79c-3.45,12.81-18.41,19.25-33.4,14.39s-24.34-19.19-20.88-32,18.41-19.25,33.4-14.39S613.55,455,610.09,467.79Z" transform="translate(-22.96 -21.12)"/><path class="cls-11" d="M607.49,465.07c0,3.83-2.84,6.94-6.34,6.94s-6.33-3.11-6.33-6.94,2.83-6.94,6.33-6.94S607.49,461.23,607.49,465.07Z" transform="translate(-22.96 -21.12)"/><path class="cls-11" d="M665.1,403.62s6.33,12.23,19.73,10.46,19.51-35.49,23.34-44.92,8.7-9.37,8.7-9.37S672,342.39,653,369.4C641.64,385.52,650.64,396.53,665.1,403.62Z" transform="translate(-22.96 -21.12)"/><path class="cls-5" d="M699,375.63c-2.72,1.82-9.7,5.95-13.55,6.29A277.59,277.59,0,0,1,709,362.59c-4.48,2.57-10.05,6.08-15.79,10.13-2.58-3.58,2.48-10.39,2.53-10.46a.45.45,0,0,0-.72-.55c-.23.32-5.5,7.42-2.53,11.52-2.58,1.84-5.2,3.79-7.76,5.81-4.58-6.41,1.24-17.25,1.31-17.37a.46.46,0,0,0-.18-.6.44.44,0,0,0-.61.16c-.26.49-6.19,11.51-1.21,18.36-2.69,2.15-5.3,4.37-7.74,6.62-6.82-7.29-1.88-21.81-1.83-22a.45.45,0,0,0-.84-.31c-.22.65-5.18,15.23,2,22.88a81.93,81.93,0,0,0-8,8.55c-7.9-6.35-6.79-20.35-6.77-20.5a.46.46,0,0,0-.41-.49.44.44,0,0,0-.48.4c0,.63-1.18,14.67,7.12,21.29q-1.42,1.85-2.55,3.65c-8.13,13.48-18.17,7.83-19.58,7.65a1.74,1.74,0,0,0-2.19.75c-1.87,3.35,7.46,5.27,12.3,4.46,8.08-1.59,10.69-6.8,14.83-13.07a21.75,21.75,0,0,0,19.58-.59l.06,0a.44.44,0,0,0,.07-.57.45.45,0,0,0-.62-.14,20.81,20.81,0,0,1-18.59.59,59.44,59.44,0,0,1,5.45-7c7,2.45,17.32-4.62,17.8-4.95l0,0a.44.44,0,0,0,0-.58.46.46,0,0,0-.62-.12c-.11.08-10.08,6.88-16.64,5,2.49-2.78,5.2-5.53,8.05-8.23,4.69.42,14.55-6.12,15-6.42a.44.44,0,0,0,.12-.62A.46.46,0,0,0,699,375.63Z" transform="translate(-22.96 -21.12)"/><path class="cls-17" d="M1474.59,595.64c-11.12,9.45-18.4,22.49-28,33.3a64.44,64.44,0,0,1-8.24,7.86c-12.7,10-33.73,17.83-40.83,30.4,0,0-13.72,20,17.63,33.43s112.72-60.39,101.9-99.29c-1.47-5.28-4.1-10.79-9.09-13.57-11.35-6.34-24.34.26-33.26,7.8A.27.27,0,0,1,1474.59,595.64Z" transform="translate(-22.96 -21.12)"/><path class="cls-8" d="M1416.92,720a15.63,15.63,0,0,1-18.8-20.58c.53-1.41,13.43-34.89,56.93-53.54,31.53-13.53,45.89-44.49,47.61-56.54a15.6,15.6,0,1,1,30.88,4.39c-3.07,21.58-23.75,62.6-66.2,80.81-30.67,13.16-39.69,35-40.06,36A15.46,15.46,0,0,1,1416.92,720Z" transform="translate(-22.96 -21.12)"/><path class="cls-12" d="M1409.72,698.59c-.53-3.82-2.36-15,2-17.29,2.84-1.51,3.48,4.46,6.06,6,5.62,3.28,10.19-2.91,11.07-7.65.79-4.18-.64-10.45,1.66-14.06,6-9.34,8-.44,13.4.66,7.4,1.49,8.42-6.6,9.68-11.71,2.56-10.33,7.65-4.72,9.41-4.11a8.5,8.5,0,0,0,7.64-.7c3.77-2.5,3.2-6.15,4.61-9.87,4-10.48,19.08-2.39,21.77-20.5.91-6.1-.74-3.32,3.36-5,2.85-1.14,5.19-.79,7.29-3.57,1.94-2.57.41-11.11,2.13-12.22,4.43-2.85.44-9.46-4.21-7-3,1.61-5.41,4.27-5.75,7.84s2.34,4.43-1.24,7.08c-2,1.51-6.21-1.47-9,7.89-1.36,4.55-1.46,8.33-6,10.55-2.42,1.17-5.34,1.28-7.82,2.41-10.56,4.8-6.66,12.93-8.89,14.75-2.54,2.08-2.89,0-5.19-.47-7.15-1.47-11.2.42-14.1,7.89-.71,1.85-.77,4.27-1.66,6-2.21,4.39-4.07,2-7.38,1.47-2.61-.42-4-1.58-6.75-.08-8,4.33-5.72,23-9.65,24.1-3.19.9-5-5.45-7.68-6.43-8.79-3.16-16.89,12-12.2,25,1.35,3.75,8.14,3.52,7.52-1Z" transform="translate(-22.96 -21.12)"/><path class="cls-10" d="M1506.41,612.42c-12.43,10.75-20.53,25.64-31.28,38a70.78,70.78,0,0,1-9.21,9c-14.21,11.33-37.79,20.21-45.69,34.56,0,0-15.28,22.82,20,38.4s126.28-68.44,113.87-113.06c-1.68-6.06-4.68-12.39-10.3-15.61-12.8-7.32-27.36.15-37.33,8.73Z" transform="translate(-22.96 -21.12)"/><path class="cls-12" d="M1408.67,1496.46H374.51a5,5,0,0,1,0-10H1408.67a5,5,0,0,1,0,10Z" transform="translate(-22.96 -21.12)"/></g></g></svg>